<svg width="491" height="491" viewBox="0 0 491 491" fill="none" xmlns="http://www.w3.org/2000/svg">
<g clip-path="url(#clip0_10_109)">
<path d="M472.469 81.443L408.869 17.843C395.769 1.44298 355.669 -12.357 325.469 17.843L34.569 307.743C30.169 312.143 28.069 317.843 28.369 323.343L1.269 465.143C-2.931 481.343 13.169 491.743 24.169 490.143L171.169 460.943C175.369 460.943 178.469 458.843 181.569 455.743L472.469 165.943C495.469 142.943 495.469 104.443 472.469 81.443ZM354.669 46.043C360.969 38.743 373.469 38.743 380.769 46.043L398.069 63.043L108.369 352.743L78.269 322.343L354.669 46.043ZM61.769 364.043L126.169 428.443L46.069 444.243L61.769 364.043ZM444.369 135.643L167.569 412.443L137.469 382.043L427.469 92.043L444.269 108.543C453.469 118.343 449.169 130.743 444.369 135.643Z" fill="white"/>
</g>
<defs>
<clipPath id="clip0_10_109">
<rect width="490.305" height="490.305" fill="white"/>
</clipPath>
</defs>
</svg>
