<svg width="368" height="368" viewBox="0 0 368 368" fill="none" xmlns="http://www.w3.org/2000/svg">
<g clip-path="url(#clip0_13_136)">
<path d="M336.554 280.265C355.452 250.935 365.442 216.913 365.442 181.874C365.442 81.588 283.854 0 183.568 0C83.282 0 1.694 81.588 1.694 181.874C1.694 216.651 11.545 250.458 30.182 279.642C48.315 308.036 73.885 330.817 104.126 345.523L117.245 318.544C64.475 292.884 31.694 240.515 31.694 181.875C31.694 98.13 99.824 30 183.568 30C267.312 30 335.442 98.13 335.442 181.874C335.442 231.721 310.542 278.313 270.4 306.445L217.436 253.226V367.136H330.801L291.848 327.996C309.409 314.972 324.58 298.849 336.554 280.265Z" fill="#FFD7D7"/>
</g>
<defs>
<clipPath id="clip0_13_136">
<rect width="367.136" height="367.136" fill="white"/>
</clipPath>
</defs>
</svg>
