<svg width="78" height="78" viewBox="0 0 78 78" fill="none" xmlns="http://www.w3.org/2000/svg">
<path d="M38.8276 77.6551C49.2311 77.6551 58.9845 73.6609 66.3227 66.3227C73.6609 58.9845 77.6551 49.2311 77.6551 38.8276C77.6551 28.424 73.6609 18.6707 66.3227 11.3324C58.9845 3.99422 49.2311 0 38.8276 0C28.424 0 18.6707 3.99422 11.3324 11.3324C3.99422 18.6707 0 28.424 0 38.8276C0 49.2311 3.99422 58.9845 11.3324 66.3227C18.6707 73.6609 28.424 77.6551 38.8276 77.6551ZM41.0569 71.06C40.3138 71.1529 39.5707 71.1529 38.8276 71.1529C37.8058 71.1529 36.784 71.06 35.7622 70.9671C32.4182 65.7654 29.9102 60.192 28.424 54.34H44.8653C45.4227 55.7334 46.4445 57.0338 47.652 57.8698C46.0729 62.5142 43.8436 66.88 41.0569 71.06V71.06ZM49.8813 69.2023C51.6462 65.9511 53.0396 62.7 54.1542 59.2631C56.848 58.7058 58.9845 56.848 60.0062 54.34H67.1587C63.4431 61.1209 57.2196 66.4156 49.8813 69.2023ZM71.06 38.8276C71.06 41.8929 70.5956 44.8654 69.8525 47.7449H59.8205C59.2631 46.5374 58.3342 45.4227 57.2196 44.5867C57.4054 42.5431 57.4982 40.4996 57.4982 38.456C57.4982 35.5765 57.3125 32.6969 56.9409 29.9102H69.7596C70.6885 32.6969 71.06 35.7622 71.06 38.8276V38.8276ZM67.1587 23.3151H55.8262C54.6187 18.2062 52.8538 13.376 50.4387 8.73157C57.4982 11.4253 63.4431 16.72 67.1587 23.3151ZM50.996 38.456C50.996 40.0351 50.9031 41.6142 50.8102 43.1934C48.2093 43.7507 46.0729 45.4227 45.0511 47.7449H27.1236C26.752 44.9582 26.4733 42.0787 26.4733 39.292C26.4733 37.5271 26.5662 35.7622 26.752 33.9973C29.1671 33.5329 31.1178 31.9538 32.3253 29.9102H50.4387C50.8102 32.6969 50.996 35.5765 50.996 38.456V38.456ZM36.4124 6.688C37.2484 6.59511 38.0845 6.59512 38.8276 6.59512C39.7565 6.59512 40.6853 6.59511 41.6142 6.688C44.9582 11.8898 47.4662 17.4631 48.9525 23.3151H32.7898C32.2325 21.736 31.2107 20.3427 29.9102 19.3209C31.5822 14.8622 33.7187 10.6822 36.4124 6.688ZM27.588 8.54578C26.0089 11.5182 24.6156 14.6764 23.5009 17.8347C20.6213 18.392 18.2991 20.5284 17.3702 23.2222H10.5893C14.212 16.6271 20.2498 11.3324 27.588 8.54578ZM6.59512 38.8276C6.59512 35.7622 7.05956 32.6969 7.89556 29.9102H18.0205C18.5778 30.932 19.4138 31.8609 20.3427 32.604C20.1569 34.8333 19.9711 37.0627 19.9711 39.292C19.9711 42.1716 20.1569 44.9582 20.5285 47.7449H7.89556C6.96667 44.8654 6.59512 41.8929 6.59512 38.8276ZM21.6431 54.2471C22.8507 59.2631 24.6156 64.1862 27.0307 68.8307C19.9711 66.044 14.1191 60.8422 10.4964 54.2471H21.6431Z" fill="#FFD7D7"/>
</svg>
